<svg data-v-423bf9ae="" xmlns="http://www.w3.org/2000/svg" viewBox="0 0 570 90" class="iconLeft"><!----><defs data-v-423bf9ae=""><linearGradient data-v-423bf9ae="" gradientTransform="rotate(25)" id="5ed722f7-8b6f-4be9-a5d6-a77dd3508aac" x1="0%" y1="0%" x2="100%" y2="0%"><stop data-v-423bf9ae="" offset="0%" style="stop-color: rgb(30, 11, 54); stop-opacity: 1;"></stop><stop data-v-423bf9ae="" offset="100%" style="stop-color: rgb(202, 55, 130); stop-opacity: 1;"></stop></linearGradient></defs><!----><g data-v-423bf9ae="" id="f3b4d869-5550-42da-95a6-f586ff6bb736" fill="#ffffff" transform="matrix(4.71327589611677,0,0,4.71327589611677,61.39766412857938,-1.4964637290600606)"><path d="M8.79 12.95C8.68 12.92 8.09 12.82 8.01 12.81L5.84 9.84C5.70 9.65 5.56 9.52 5.39 9.42C5.78 9.34 6.12 9.18 6.43 9.02C6.73 8.85 6.99 8.64 7.20 8.39C7.41 8.13 7.57 7.85 7.69 7.55C7.80 7.24 7.85 6.93 7.85 6.57C7.85 6.15 7.78 5.74 7.64 5.40C7.50 5.07 7.28 4.77 6.97 4.52C6.66 4.27 6.29 4.09 5.82 3.96C5.36 3.84 4.82 3.77 4.17 3.77L1.47 3.77L0.46 3.77L0.46 4.38C0.46 4.51 0.55 4.61 0.67 4.63C0.80 4.66 1.48 4.80 1.48 4.80L1.48 12.78C1.48 12.78 0.80 12.92 0.67 12.95C0.55 12.98 0.46 13.08 0.46 13.20L0.46 13.80L1.47 13.80L2.83 13.80L2.83 13.80L3.84 13.80L3.84 13.20C3.84 13.08 3.74 12.98 3.61 12.95C3.50 12.92 2.83 12.78 2.83 12.78L2.83 9.62L3.72 9.62C3.92 9.62 4.06 9.65 4.14 9.70C4.23 9.76 4.31 9.83 4.40 9.94L7 13.52C7.11 13.72 7.28 13.82 7.53 13.82L7.98 13.82L8.74 13.82L8.99 13.82L8.99 13.20C8.99 13.08 8.90 12.98 8.78 12.95ZM4.10 8.64L2.81 8.64L2.81 4.86L4.17 4.86C4.96 4.86 5.53 5.00 5.92 5.31C6.31 5.61 6.51 6.06 6.51 6.65C6.51 6.94 6.47 7.21 6.36 7.46C6.24 7.71 6.09 7.91 5.89 8.08C5.70 8.25 5.45 8.40 5.14 8.50C4.83 8.60 4.48 8.64 4.09 8.64ZM13.31 12.94C12.81 12.94 12.45 12.80 12.19 12.50C11.94 12.21 11.83 11.77 11.83 11.24L11.83 6.73L9.56 6.73L9.56 7.32C9.56 7.46 9.65 7.56 9.79 7.59C9.87 7.62 10.12 7.67 10.57 7.76L10.57 11.26C10.57 12.10 10.79 12.73 11.19 13.20C11.61 13.69 12.19 13.94 12.95 13.94C13.85 13.94 14.63 13.57 15.30 12.81L15.40 13.57C15.46 13.73 15.57 13.83 15.74 13.83L17.49 13.83L17.49 13.23C17.49 13.09 17.42 13.01 17.28 12.98C17.19 12.95 16.93 12.89 16.48 12.81L16.48 6.73L15.23 6.73L14.22 6.73L14.22 7.34C14.22 7.48 14.29 7.57 14.43 7.60C14.88 7.69 15.15 7.74 15.23 7.77L15.23 11.97C14.66 12.61 14.01 12.95 13.31 12.95ZM20.51 7.76L20.40 6.99C20.34 6.82 20.23 6.73 20.06 6.73L19.33 6.73L18.33 6.73L18.33 7.32C18.33 7.46 18.38 7.56 18.52 7.59C18.61 7.62 18.89 7.67 19.33 7.76L19.33 12.81L18.52 12.96C18.38 12.99 18.33 13.09 18.33 13.23L18.33 13.82L21.59 13.82L21.59 13.23C21.59 13.09 21.52 12.99 21.38 12.96C20.87 12.85 20.59 12.80 20.57 12.80L20.57 8.60C21.15 7.94 21.80 7.60 22.50 7.60C23.49 7.60 23.98 8.19 23.98 9.31L23.98 13.82L26.25 13.82L26.25 13.22C26.25 13.08 26.17 12.98 26.03 12.95C25.94 12.92 25.68 12.87 25.23 12.78L25.23 9.30C25.23 8.48 25.02 7.83 24.63 7.35C24.21 6.85 23.62 6.61 22.86 6.61C21.99 6.61 21.21 6.99 20.51 7.74ZM35.22 6.73L35.22 7.32C35.22 7.46 35.31 7.56 35.45 7.59C35.92 7.69 36.20 7.74 36.26 7.74L35.11 11.55C35.03 11.86 34.96 12.18 34.90 12.50C34.79 12.07 34.71 11.75 34.65 11.55L33.18 6.96C33.12 6.79 33.01 6.71 32.83 6.71L32.28 6.71C32.12 6.71 32.00 6.79 31.95 6.96L30.46 11.55C30.32 12.00 30.23 12.32 30.18 12.52C30.16 12.29 30.07 11.97 29.99 11.55L28.87 7.74C29.29 7.66 29.55 7.62 29.64 7.59C29.78 7.56 29.85 7.46 29.85 7.32L29.85 6.73L26.68 6.73L26.68 7.32C26.68 7.46 26.77 7.56 26.91 7.59C26.95 7.59 27.09 7.63 27.37 7.69C27.48 7.71 27.58 7.73 27.61 7.73L29.57 13.82L30.52 13.82C30.66 13.82 30.74 13.75 30.80 13.58L32.40 8.78C32.42 8.67 32.45 8.58 32.48 8.47C32.51 8.36 32.51 8.25 32.54 8.13C32.56 8.22 32.58 8.33 32.61 8.44C32.63 8.55 32.66 8.67 32.70 8.78L34.27 13.59C34.31 13.76 34.40 13.82 34.52 13.82L35.50 13.82L37.48 7.74C37.52 7.74 37.63 7.70 37.83 7.67C38.02 7.64 38.12 7.60 38.18 7.60C38.32 7.57 38.39 7.49 38.39 7.35L38.39 6.75ZM45.26 12.95C45.18 12.92 44.76 12.84 44.56 12.80L44.56 9.25C44.56 8.86 44.52 8.50 44.41 8.16C44.30 7.83 44.14 7.55 43.93 7.32C43.72 7.10 43.47 6.93 43.16 6.79C42.85 6.65 42.49 6.59 42.10 6.59C41.54 6.59 41.03 6.68 40.59 6.87C40.14 7.07 39.72 7.34 39.33 7.71L39.55 8.11C39.58 8.16 39.63 8.23 39.69 8.27C39.75 8.32 39.83 8.33 39.91 8.33C40.03 8.33 40.12 8.30 40.24 8.22C40.35 8.13 40.49 8.06 40.64 7.97C40.80 7.87 40.96 7.80 41.17 7.71C41.38 7.63 41.64 7.59 41.94 7.59C42.41 7.59 42.76 7.74 42.99 8.02C43.23 8.30 43.36 8.72 43.36 9.28L43.36 9.83C42.55 9.83 41.87 9.88 41.31 10.01C40.75 10.14 40.31 10.32 39.97 10.51C39.63 10.71 39.37 10.96 39.21 11.21C39.06 11.47 38.99 11.75 38.99 12.03C38.99 12.35 39.03 12.63 39.14 12.87C39.26 13.10 39.40 13.30 39.56 13.45C39.73 13.61 39.96 13.71 40.19 13.79C40.43 13.87 40.67 13.92 40.95 13.92C41.23 13.92 41.48 13.90 41.71 13.85C41.93 13.79 42.13 13.72 42.32 13.64C42.52 13.55 42.71 13.44 42.88 13.30C43.05 13.16 43.25 13.01 43.44 12.84L43.58 13.51C43.61 13.62 43.64 13.71 43.72 13.73C43.81 13.76 43.90 13.79 44.02 13.79L44.46 13.79L44.56 13.79L45.47 13.79L45.47 13.19C45.47 13.06 45.39 12.95 45.26 12.92ZM43.33 12.08C43.19 12.22 43.05 12.36 42.91 12.47C42.77 12.59 42.62 12.70 42.45 12.78C42.28 12.87 42.11 12.92 41.93 12.96C41.75 13.01 41.57 13.03 41.34 13.03C41.17 13.03 41.02 13.01 40.88 12.96C40.74 12.92 40.63 12.87 40.52 12.78C40.40 12.70 40.32 12.59 40.26 12.45C40.21 12.31 40.17 12.17 40.17 11.97C40.17 11.77 40.22 11.61 40.33 11.44C40.45 11.27 40.64 11.13 40.89 11.02C41.15 10.91 41.48 10.79 41.87 10.72C42.27 10.65 42.76 10.63 43.33 10.63ZM53.17 6.73L50.54 6.73L50.54 7.32C50.54 7.46 50.60 7.56 50.74 7.59C50.88 7.62 51.13 7.66 51.51 7.74L49.98 11.44C49.92 11.58 49.84 11.80 49.76 12.08C49.70 11.86 49.66 11.63 49.57 11.44L47.99 7.74C48.44 7.66 48.69 7.60 48.78 7.57C48.92 7.55 48.99 7.46 48.99 7.32L48.99 6.72L45.81 6.72L45.81 7.32C45.81 7.46 45.88 7.55 46.02 7.57C46.10 7.60 46.31 7.66 46.65 7.71L49.14 13.40L47.85 16.21L48.78 16.21C48.97 16.21 49.14 16.10 49.22 15.90L52.74 7.73C52.77 7.73 52.89 7.70 53.09 7.66C53.28 7.62 53.42 7.57 53.47 7.57C53.61 7.55 53.68 7.46 53.68 7.32L53.68 6.72ZM62.75 12.95C62.64 12.92 62.05 12.82 61.96 12.81L59.79 9.84C59.65 9.65 59.51 9.52 59.35 9.42C59.74 9.34 60.07 9.18 60.38 9.02C60.69 8.85 60.94 8.64 61.15 8.39C61.36 8.13 61.53 7.85 61.64 7.55C61.75 7.24 61.81 6.93 61.81 6.57C61.81 6.15 61.74 5.74 61.60 5.40C61.46 5.07 61.24 4.77 60.93 4.52C60.62 4.27 60.24 4.09 59.78 3.96C59.32 3.84 58.77 3.77 58.13 3.77L55.43 3.77L54.42 3.77L54.42 4.38C54.42 4.51 54.50 4.61 54.63 4.63C54.75 4.66 55.44 4.80 55.44 4.80L55.44 12.78C55.44 12.78 54.75 12.92 54.63 12.95C54.50 12.98 54.42 13.08 54.42 13.20L54.42 13.80L55.43 13.80L56.78 13.80L56.78 13.80L57.79 13.80L57.79 13.20C57.79 13.08 57.69 12.98 57.57 12.95C57.46 12.92 56.78 12.78 56.78 12.78L56.78 9.62L57.68 9.62C57.88 9.62 58.02 9.65 58.10 9.70C58.18 9.76 58.27 9.83 58.35 9.94L60.96 13.52C61.07 13.72 61.24 13.82 61.49 13.82L61.94 13.82L62.69 13.82L62.94 13.82L62.94 13.20C62.94 13.08 62.86 12.98 62.73 12.95ZM58.06 8.64L56.77 8.64L56.77 4.86L58.13 4.86C58.91 4.86 59.49 5.00 59.88 5.31C60.27 5.61 60.47 6.06 60.47 6.65C60.47 6.94 60.42 7.21 60.31 7.46C60.20 7.71 60.05 7.91 59.85 8.08C59.65 8.25 59.40 8.40 59.09 8.50C58.79 8.60 58.44 8.64 58.04 8.64ZM66.51 6.62C66.01 6.62 65.55 6.71 65.13 6.89C64.71 7.07 64.36 7.32 64.08 7.63C63.80 7.94 63.57 8.33 63.42 8.75C63.27 9.17 63.18 9.62 63.18 10.12C63.18 10.74 63.27 11.27 63.43 11.75C63.60 12.22 63.83 12.61 64.13 12.94C64.44 13.26 64.79 13.51 65.21 13.68C65.63 13.85 66.08 13.93 66.57 13.93C66.82 13.93 67.09 13.90 67.34 13.86C67.59 13.82 67.84 13.75 68.10 13.66C68.35 13.58 68.56 13.45 68.78 13.31C69.01 13.17 69.19 13.03 69.34 12.84L68.99 12.38C68.94 12.29 68.87 12.25 68.75 12.25C68.67 12.25 68.59 12.29 68.47 12.36C68.36 12.43 68.22 12.50 68.05 12.59C67.89 12.67 67.69 12.75 67.47 12.82C67.24 12.89 66.96 12.92 66.65 12.92C66.32 12.92 66.04 12.87 65.76 12.75C65.48 12.64 65.25 12.47 65.06 12.25C64.86 12.03 64.69 11.77 64.58 11.44C64.47 11.10 64.41 10.71 64.41 10.26L69.12 10.26C69.23 10.26 69.33 10.22 69.37 10.16C69.41 10.11 69.43 9.97 69.43 9.77C69.43 9.27 69.34 8.82 69.20 8.43C69.06 8.04 68.84 7.70 68.59 7.43C68.33 7.17 68.03 6.97 67.66 6.83C67.30 6.69 66.91 6.62 66.49 6.62ZM66.51 7.55C66.79 7.55 67.06 7.59 67.28 7.69C67.51 7.78 67.70 7.92 67.86 8.09C68.01 8.26 68.11 8.48 68.19 8.72C68.28 8.96 68.32 9.23 68.32 9.51L64.47 9.51C64.55 8.89 64.78 8.40 65.11 8.05C65.45 7.70 65.93 7.53 66.53 7.53ZM72.18 7.83L72.09 6.99C72.03 6.82 71.92 6.73 71.75 6.73L70.99 6.73L69.99 6.73L69.99 7.32C69.99 7.46 70.07 7.56 70.21 7.59C70.29 7.62 70.55 7.67 70.99 7.76L70.99 15.20L70.21 15.36C70.07 15.39 69.99 15.48 69.99 15.62L69.99 16.23L73.26 16.23L73.26 15.62C73.26 15.48 73.18 15.39 73.04 15.36C73.01 15.36 72.87 15.33 72.63 15.27C72.39 15.22 72.27 15.19 72.25 15.19L72.25 13.09C72.76 13.65 73.43 13.92 74.30 13.92C75.17 13.92 75.89 13.55 76.45 12.85C76.99 12.18 77.27 11.30 77.27 10.23C77.27 9.07 77.01 8.16 76.54 7.52C76.06 6.90 75.42 6.59 74.58 6.59C73.65 6.59 72.87 7.01 72.20 7.83ZM72.25 12.11L72.25 8.68C72.79 7.97 73.43 7.60 74.16 7.60C75.36 7.60 75.98 8.50 75.98 10.23C75.98 11.10 75.81 11.77 75.45 12.25C75.08 12.73 74.55 12.95 73.88 12.95C73.21 12.95 72.67 12.67 72.25 12.11ZM81.52 12.94C81.02 12.94 80.65 12.80 80.40 12.50C80.15 12.21 80.04 11.77 80.04 11.24L80.04 6.73L77.77 6.73L77.77 7.32C77.77 7.46 77.85 7.56 77.99 7.59C78.08 7.62 78.33 7.67 78.78 7.76L78.78 11.26C78.78 12.10 79.00 12.73 79.39 13.20C79.81 13.69 80.40 13.94 81.16 13.94C82.05 13.94 82.84 13.57 83.51 12.81L83.61 13.57C83.66 13.73 83.78 13.83 83.94 13.83L85.69 13.83L85.69 13.23C85.69 13.09 85.62 13.01 85.48 12.98C85.40 12.95 85.13 12.89 84.69 12.81L84.69 6.73L83.44 6.73L82.43 6.73L82.43 7.34C82.43 7.48 82.50 7.57 82.64 7.60C83.09 7.69 83.36 7.74 83.44 7.77L83.44 11.97C82.87 12.61 82.22 12.95 81.52 12.95ZM93.28 10.23C93.28 9.65 93.21 9.11 93.09 8.67C92.96 8.22 92.78 7.85 92.55 7.55C92.33 7.24 92.05 7.00 91.71 6.85C91.38 6.69 91.01 6.62 90.59 6.62C90.10 6.62 89.68 6.72 89.31 6.93C88.93 7.14 88.59 7.42 88.30 7.76L88.30 3.51L87.08 3.51L87.04 3.51L85.93 3.51L85.93 4.12C85.93 4.24 86.02 4.35 86.14 4.38C86.25 4.41 86.87 4.49 87.04 4.52L87.04 12.40L87.04 13.43L87.04 13.54C87.04 13.54 88.91 13.93 90.17 13.93C90.62 13.93 91.03 13.85 91.41 13.68C91.78 13.51 92.11 13.29 92.39 12.98C92.67 12.67 92.89 12.28 93.06 11.83C93.23 11.38 93.31 10.86 93.31 10.28L93.31 10.26L93.31 10.23ZM91.46 12.25C91.29 12.47 91.07 12.67 90.82 12.78C90.59 12.89 90.34 12.94 90.06 12.95L89.96 12.95L89.70 12.95C89.08 12.92 88.48 12.78 88.30 12.73L88.30 12.11L88.30 10.35L88.30 8.68C88.55 8.34 88.83 8.08 89.14 7.88C89.45 7.69 89.81 7.60 90.22 7.60C90.50 7.60 90.76 7.64 90.99 7.74C91.21 7.84 91.39 8.01 91.55 8.22C91.70 8.43 91.83 8.69 91.91 9.03C91.99 9.37 92.02 9.74 92.02 10.21L92.02 10.32C92.02 10.71 91.97 11.07 91.88 11.38C91.78 11.72 91.64 12.00 91.48 12.22ZM97.10 12.95C97.02 12.92 96.77 12.87 96.32 12.78L96.32 3.50L94.05 3.50L94.05 4.10C94.05 4.24 94.14 4.33 94.28 4.35C94.36 4.38 94.61 4.44 95.06 4.52L95.06 12.80L94.28 12.95C94.14 12.98 94.05 13.08 94.05 13.22L94.05 13.82L97.33 13.82L97.33 13.22C97.33 13.08 97.24 12.98 97.10 12.95ZM99.12 5.12C99.20 5.21 99.29 5.26 99.40 5.32C99.51 5.38 99.62 5.39 99.74 5.39C99.85 5.39 99.96 5.38 100.07 5.32C100.18 5.26 100.27 5.21 100.35 5.12C100.44 5.04 100.49 4.96 100.55 4.84C100.60 4.73 100.63 4.62 100.63 4.51C100.63 4.40 100.60 4.27 100.55 4.16C100.49 4.05 100.44 3.95 100.35 3.86C100.27 3.78 100.18 3.72 100.07 3.67C99.96 3.61 99.85 3.60 99.74 3.60C99.62 3.60 99.51 3.61 99.40 3.67C99.29 3.72 99.20 3.78 99.12 3.86C99.04 3.95 98.98 4.05 98.92 4.16C98.87 4.27 98.85 4.40 98.85 4.51C98.85 4.62 98.87 4.73 98.92 4.84C98.98 4.96 99.04 5.04 99.12 5.12ZM101.15 12.95C101.02 12.92 100.35 12.80 100.35 12.80L100.35 6.73L98.10 6.73L98.10 7.32C98.10 7.45 98.18 7.56 98.31 7.59C98.43 7.62 99.12 7.74 99.12 7.74L99.12 12.80C99.12 12.80 98.43 12.92 98.31 12.95C98.18 12.98 98.10 13.09 98.10 13.22L98.10 13.82L101.36 13.82L101.36 13.22C101.36 13.09 101.28 12.98 101.15 12.95ZM107.76 12.82L107.42 12.36C107.37 12.28 107.30 12.25 107.20 12.25C107.10 12.25 107.00 12.28 106.92 12.36C106.47 12.75 105.95 12.95 105.36 12.95C104.72 12.95 104.23 12.71 103.87 12.25C103.50 11.77 103.31 11.10 103.31 10.26C103.31 9.42 103.47 8.78 103.84 8.30C104.02 8.08 104.24 7.90 104.50 7.78C104.75 7.67 105.01 7.60 105.27 7.60C105.52 7.60 105.77 7.62 106.05 7.66C106.16 7.69 106.33 7.71 106.55 7.78C106.55 7.80 106.57 7.94 106.60 8.25C106.62 8.55 106.64 8.72 106.65 8.78C106.68 8.92 106.75 8.97 106.89 8.97L107.45 8.97L107.45 7.13C106.58 6.79 105.88 6.62 105.35 6.62C104.30 6.62 103.46 6.96 102.86 7.64C102.28 8.32 102.00 9.17 102.00 10.26C102.00 11.38 102.31 12.28 102.91 12.95C103.49 13.59 104.22 13.92 105.13 13.92C106.27 13.92 107.17 13.55 107.76 12.82Z"></path></g><!----><g data-v-423bf9ae="" id="a902fb98-56e3-4f75-95b5-ea03fe1f1489" transform="matrix(1.0587877965400696,0,0,1.0587877965400696,-25.218821306277263,-2.146873214739216)" stroke="none" fill="#ffffff"><path d="M56.554 35.695c.339 0 .707.031 1.322-.123.614-.154 4.856-1.076 7.346-3.535.294-.291.614-1.106 0-2.213-.615-1.106-2.521-5.071-5.01-8.606-.28-.397-.461-.646-.554-.953-.092-.308-1.229-2.736-3.104-2.551 0 0-.199-.031-.307-.246-.107-.215-.354-.399-.538-.292s-.538.476-.784.253c-.245-.223-2.274-1.099-2.551-2.189-.073-.29-.092-.769.107-.784.2-.016.615-.246.661-.553.046-.308-.016-.676-.354-.784-.218-.069-.261-.169-.092-.246s.445-.584.199-.876-.568-.354-.399-.553.6-.477.876-.399c.276.077.763-.261 1.065-.584s.333-.722.486-1.061c.154-.338.508-.799.415-1.444-.092-.646-.23-.415-.199-.861.03-.446-.016-.477-.338-.661-.323-.185-.508-.123-.431-.538s-.016-1.091-.461-1.398c-.446-.307-.554-.63-1.015-.63s-.799.153-1.061-.261c-.261-.415-1.383-1.061-1.905-1.076-.522-.016-1.429.138-1.813 0-.384-.139-2.105.107-3.596 1.905-.242.292-.876 2.305-.123 4.103.162.387 1.03 1.414.999 1.813-.031.4-.015 1.629.922 2.905.288.392.507.492.584.845s.153.338.308.522c.153.184-.107.86-.569.983-.461.123-1.997.369-2.32.292-.323-.077-.738-.062-.876 0s-1.444.2-1.829.6c-.384.399-1.368 1.414-1.629 1.675-.262.261-3.796 3.949-7.699 8.806-.258.321-.338 1.26.184 1.829.211.229.354.492.507.753s1.736 2.413 7.008 6.27c.222.163 1.106.446 1.829.277.244-.057.538-.311.446.052-.092.363-.999 3.621-.369 8.892.046.384.814 5.103 1.045 6.025.231.922.522 2.873.292 6.5-.062.984-.399 8.191-.338 9.006s-.338 1.812-.584 2.52-1.537 5.011-4.472 8.929c-.216.288-.538.753-1.521.83-.984.077-3.55.791-11.096.784-.652-.001-.953.768-.707 1.383s.154.784.123 1.353.107 1.645.676 1.859.799.23.938.63.938.876 1.552.922.845.276 1.152.6c.307.322 3.12-.016 3.934.139.814.153.799.583 1.199.276.399-.308.646-.784 1.106-.492s1.768.077 2.305-.23c.538-.307 1.199-.415 1.767-.368.569.046 1.445-.661 1.921-.892.476-.23.722-.661.937-.077.215.584.492.938 1.491.922.999-.015 1.245-.199 1.645.385.399.584.737 1.429 2.089 1.444 1.353.016 2.429-.769 2.966-.892.538-.123 2.444.2 2.812-.123.369-.322.907-1.705 3.427-2.151.667-.117 2.782.216 4.58-.737s2.044-1.321 1.429-1.552c-.614-.23-1.091-.369-1.413-1.875-.167-.778-1.168-2.489-1.491-7.915-.051-.858-.338-7.698-1.198-14.46-.094-.734-.8-4.856-.738-6.547s0-4.597.154-6.249c.153-1.651-.276-5.862-1.229-7.921-.183-.4-.429-1.384-.091-1.384zm-13.277-3.426c-.23.077-.338.307-.522.445-.185.139-.968 1.291-1.706.861-.737-.43-3.073-2.49-3.442-3.12-.369-.63-1.045-1.736-1.352-2.09-.308-.354-.492-.646-.246-.799s2.735-2.49 4.411-4.534c.159-.193.738-.799 1.045-.922s.63-.185.661.323c.031.507 1.276 8.283 1.383 9.297.005.063-.002.461-.232.539zm12.14.015c-.169-.169-.262-.154-.415-.2s-.092-.615-.092-.615c-.216-2.274.566-3.807.829-4.18.846-1.198 1.03-3.273 1.199-3.55.169-.276.199-.154.461.107.261.261 4.072 5.994 4.334 6.301.261.308.088.35-.139.584-1.321 1.368-3.412 2.244-4.396 2.397s-1.612-.675-1.781-.844z"></path></g><!----></svg>